<svg width="32" height="32" viewBox="0 0 32 32" fill="none" xmlns="http://www.w3.org/2000/svg">
<path fill-rule="evenodd" clip-rule="evenodd" d="M16.0002 1.33334C7.90016 1.33334 1.3335 7.90001 1.3335 16C1.3335 24.1 7.90016 30.6667 16.0002 30.6667C24.1002 30.6667 30.6668 24.1 30.6668 16C30.6668 7.90001 24.1002 1.33334 16.0002 1.33334ZM15.3335 8.00001C14.9799 8.00001 14.6407 8.14049 14.3907 8.39053C14.1406 8.64058 14.0002 8.97972 14.0002 9.33334C14.0002 9.68697 14.1406 10.0261 14.3907 10.2762C14.6407 10.5262 14.9799 10.6667 15.3335 10.6667H16.0002C16.3538 10.6667 16.6929 10.5262 16.943 10.2762C17.193 10.0261 17.3335 9.68697 17.3335 9.33334C17.3335 8.97972 17.193 8.64058 16.943 8.39053C16.6929 8.14049 16.3538 8.00001 16.0002 8.00001H15.3335ZM13.3335 13.3333C12.9799 13.3333 12.6407 13.4738 12.3907 13.7239C12.1406 13.9739 12.0002 14.3131 12.0002 14.6667C12.0002 15.0203 12.1406 15.3594 12.3907 15.6095C12.6407 15.8595 12.9799 16 13.3335 16H14.6668V20H13.3335C12.9799 20 12.6407 20.1405 12.3907 20.3905C12.1406 20.6406 12.0002 20.9797 12.0002 21.3333C12.0002 21.687 12.1406 22.0261 12.3907 22.2762C12.6407 22.5262 12.9799 22.6667 13.3335 22.6667H18.6668C19.0205 22.6667 19.3596 22.5262 19.6096 22.2762C19.8597 22.0261 20.0002 21.687 20.0002 21.3333C20.0002 20.9797 19.8597 20.6406 19.6096 20.3905C19.3596 20.1405 19.0205 20 18.6668 20H17.3335V14.6667C17.3335 14.3131 17.193 13.9739 16.943 13.7239C16.6929 13.4738 16.3538 13.3333 16.0002 13.3333H13.3335Z" fill="#EB3238"/>
</svg>
