<svg width="33" height="33" viewBox="0 0 33 33" fill="none" xmlns="http://www.w3.org/2000/svg">
<path d="M17.585 6.14902L29.5441 13.0618C29.6541 13.1255 29.7455 13.2169 29.8091 13.327C29.8726 13.4372 29.906 13.562 29.906 13.6892C29.906 13.8163 29.8726 13.9412 29.8091 14.0513C29.7455 14.1614 29.6541 14.2529 29.5441 14.3165L17.585 21.2293C17.2552 21.4201 16.9813 21.6942 16.7909 22.0243C16.6005 22.3543 16.5002 22.7286 16.5001 23.1096V26.2254C16.5003 26.3523 16.5338 26.4769 16.5973 26.5868C16.6608 26.6966 16.7522 26.7878 16.8621 26.8512C16.972 26.9146 17.0967 26.948 17.2236 26.9479C17.3505 26.9479 17.4751 26.9145 17.585 26.851L22.5831 23.9621C22.9131 23.7715 23.1871 23.4974 23.3777 23.1673C23.5682 22.8373 23.6686 22.4629 23.6687 22.0818V18.8966C23.6687 18.5154 23.5684 18.1409 23.3778 17.8108C23.1873 17.4806 22.9132 17.2064 22.5831 17.0156L17.585 14.1268C17.255 13.9359 16.981 13.6615 16.7905 13.3312C16.6001 13.0009 16.5 12.6263 16.5001 12.2451V6.77465C16.5003 6.64775 16.5338 6.52312 16.5973 6.41328C16.6608 6.30343 16.7522 6.21223 16.8621 6.14884C16.972 6.08545 17.0967 6.05209 17.2236 6.05212C17.3505 6.05216 17.4751 6.08557 17.585 6.14902V6.14902ZM15.4153 6.14902L3.4562 13.0618C3.34614 13.1255 3.25475 13.2169 3.19122 13.327C3.12768 13.4372 3.09424 13.562 3.09424 13.6892C3.09424 13.8163 3.12768 13.9412 3.19122 14.0513C3.25475 14.1614 3.34614 14.2529 3.4562 14.3165L15.4153 21.2293C15.7451 21.4201 16.019 21.6942 16.2094 22.0243C16.3998 22.3543 16.5001 22.7286 16.5001 23.1096V26.2254C16.5 26.3523 16.4665 26.4769 16.403 26.5868C16.3394 26.6966 16.2481 26.7878 16.1382 26.8512C16.0283 26.9146 15.9036 26.948 15.7767 26.9479C15.6498 26.9479 15.5252 26.9145 15.4153 26.851L10.4171 23.9621C10.0872 23.7715 9.81317 23.4974 9.62262 23.1673C9.43208 22.8373 9.33171 22.4629 9.33158 22.0818V18.8966C9.33159 18.5154 9.4319 18.1409 9.62245 17.8108C9.813 17.4806 10.0871 17.2064 10.4171 17.0156L15.4153 14.1268C15.7453 13.9359 16.0193 13.6615 16.2097 13.3312C16.4002 13.0009 16.5003 12.6263 16.5001 12.2451V6.77465C16.5 6.64775 16.4665 6.52312 16.403 6.41328C16.3394 6.30343 16.2481 6.21223 16.1382 6.14884C16.0283 6.08545 15.9036 6.05209 15.7767 6.05212C15.6498 6.05216 15.5252 6.08557 15.4153 6.14902V6.14902Z" stroke="#EB3238" stroke-width="0.6875" stroke-linecap="round" stroke-linejoin="round"/>
</svg>
